# xmcd
#
# Track frame offsets: 
#        150
#        12480
#        28050
#        42771
#        60638
#        74700
#        90744
#        102049
#        124400
#        151167
#        163299
#
# Disc length: 2310 seconds
#
# Revision: 0
# Processed by: cddbd v1.5.2PL0 Copyright (c) Steve Scherf et al.
# Submitted via: ExactAudioCopy v0.99pb4
#
DISCID=9409040b
DTITLE=Blue Diamond Shine - That Godforsaken Road
DYEAR=2002
DGENRE=Country
TTITLE0=You're Gonna Be Wrong
TTITLE1=Strong Wine And Strong Women
TTITLE2=Jet Planes And Rattlesnakes
TTITLE3=Fort Worth
TTITLE4=Dell City
TTITLE5=The Sky Is Alive
TTITLE6=Poor Choice Of Words
TTITLE7=The Murder Of The Blue-Eyed Man From Galveston Bay
TTITLE8=The Bolts
TTITLE9=Comedy And Tragedy
TTITLE10=Playboy
EXTD=
EXTT0=
EXTT1=
EXTT2=
EXTT3=
EXTT4=
EXTT5=
EXTT6=
EXTT7=
EXTT8=
EXTT9=
EXTT10=
PLAYORDER=
